<?xml version="1.0" encoding="utf-8"?>
<!-- Generator: Adobe Illustrator 21.0.2, SVG Export Plug-In . SVG Version: 6.00 Build 0)  -->
<svg version="1.1" id="Layer_1" xmlns="http://www.w3.org/2000/svg" xmlns:xlink="http://www.w3.org/1999/xlink" x="0px" y="0px"
	 viewBox="0 0 100 100" style="enable-background:new 0 0 100 100;" xml:space="preserve" fill="#587aff">
<path d="M31,27c0,1.1-0.9,2-2,2s-2-0.9-2-2s0.9-2,2-2S31,25.9,31,27z M38,25c-1.1,0-2,0.9-2,2s0.9,2,2,2s2-0.9,2-2S39.1,25,38,25z
	 M48,25c-1.1,0-2,0.9-2,2s0.9,2,2,2s2-0.9,2-2S49.1,25,48,25z M29,33c-1.1,0-2,0.9-2,2s0.9,2,2,2s2-0.9,2-2S30.1,33,29,33z M38,33
	c-1.1,0-2,0.9-2,2s0.9,2,2,2s2-0.9,2-2S39.1,33,38,33z M48,33c-1.1,0-2,0.9-2,2s0.9,2,2,2s2-0.9,2-2S49.1,33,48,33z M29,41
	c-1.1,0-2,0.9-2,2s0.9,2,2,2s2-0.9,2-2S30.1,41,29,41z M38,41c-1.1,0-2,0.9-2,2s0.9,2,2,2s2-0.9,2-2S39.1,41,38,41z M48,41
	c-1.1,0-2,0.9-2,2s0.9,2,2,2s2-0.9,2-2S49.1,41,48,41z M29,49c-1.1,0-2,0.9-2,2s0.9,2,2,2s2-0.9,2-2S30.1,49,29,49z M38,49
	c-1.1,0-2,0.9-2,2s0.9,2,2,2s2-0.9,2-2S39.1,49,38,49z M48,49c-1.1,0-2,0.9-2,2s0.9,2,2,2s2-0.9,2-2S49.1,49,48,49z M29,57
	c-1.1,0-2,0.9-2,2s0.9,2,2,2s2-0.9,2-2S30.1,57,29,57z M38,57c-1.1,0-2,0.9-2,2s0.9,2,2,2s2-0.9,2-2S39.1,57,38,57z M48,57
	c-1.1,0-2,0.9-2,2s0.9,2,2,2s2-0.9,2-2S49.1,57,48,57z M29,65c-1.1,0-2,0.9-2,2s0.9,2,2,2s2-0.9,2-2S30.1,65,29,65z M38,65
	c-1.1,0-2,0.9-2,2s0.9,2,2,2s2-0.9,2-2S39.1,65,38,65z M48,65c-1.1,0-2,0.9-2,2s0.9,2,2,2s2-0.9,2-2S49.1,65,48,65z M29,73
	c-1.1,0-2,0.9-2,2s0.9,2,2,2s2-0.9,2-2S30.1,73,29,73z M38,73c-1.1,0-2,0.9-2,2s0.9,2,2,2s2-0.9,2-2S39.1,73,38,73z M48,73
	c-1.1,0-2,0.9-2,2s0.9,2,2,2s2-0.9,2-2S49.1,73,48,73z M29,81c-1.1,0-2,0.9-2,2s0.9,2,2,2s2-0.9,2-2S30.1,81,29,81z M38,81
	c-1.1,0-2,0.9-2,2s0.9,2,2,2s2-0.9,2-2S39.1,81,38,81z M48,81c-1.1,0-2,0.9-2,2s0.9,2,2,2s2-0.9,2-2S49.1,81,48,81z M68,25
	c-1.1,0-2,0.9-2,2s0.9,2,2,2s2-0.9,2-2S69.1,25,68,25z M68,33c-1.1,0-2,0.9-2,2s0.9,2,2,2s2-0.9,2-2S69.1,33,68,33z M68,41
	c-1.1,0-2,0.9-2,2s0.9,2,2,2s2-0.9,2-2S69.1,41,68,41z M68,49c-1.1,0-2,0.9-2,2s0.9,2,2,2s2-0.9,2-2S69.1,49,68,49z M68,57
	c-1.1,0-2,0.9-2,2s0.9,2,2,2s2-0.9,2-2S69.1,57,68,57z M68,65c-1.1,0-2,0.9-2,2s0.9,2,2,2s2-0.9,2-2S69.1,65,68,65z M68,73
	c-1.1,0-2,0.9-2,2s0.9,2,2,2s2-0.9,2-2S69.1,73,68,73z M68,81c-1.1,0-2,0.9-2,2s0.9,2,2,2s2-0.9,2-2S69.1,81,68,81z M95,93
	c0,1.1-0.9,2-2,2H77.3H58.7h-1.2H19.6H7c-1.1,0-2-0.9-2-2s0.9-2,2-2h10.1V19.8c0-1.1,0.7-2.1,1.8-2.4L56.7,5.1C56.9,5,57.2,5,57.5,5
	C58.8,5,60,6.1,60,7.6v2.7l18.6,10.3c0.8,0.5,1.4,1.4,1.4,2.3V91h13C94.1,91,95,91.9,95,93z M21.1,91H56V12.5v-3L21.1,20.9V91z
	 M76,91V23.7l-16-8.9V91H76z"/>
</svg>
