<?xml version="1.0" encoding="utf-8"?>
<!-- Generator: Adobe Illustrator 19.0.0, SVG Export Plug-In . SVG Version: 6.00 Build 0)  -->
<svg version="1.1" id="Layer_1" xmlns="http://www.w3.org/2000/svg" xmlns:xlink="http://www.w3.org/1999/xlink" x="0px" y="0px"
	 viewBox="-255 334 100 125" style="enable-background:new -255 334 100 125;" xml:space="preserve">
<style type="text/css">
	.st0{fill:#B55155;}
</style>
<path class="st0" d="M-156,429.8c-0.5-22.1-5.2-39.4-12.9-48c1.1,0.1,2,0.2,2.9,0.2c4.5,0.2,8-5,8.4-8.6c0.2-2.2-0.7-4.9-2.3-6.8
	c-1.4-1.7-3.3-2.6-5.2-2.7c-0.7,0-1.5-0.1-2.6-0.2c-0.7-0.1-1.5-0.1-2.5-0.2c1.6-3.9,3-7.4,3.6-9.5c1.4-4.2-1.6-7.9-5.3-9.5
	c-3.5-1.5-6.8-0.7-8.2,2c-0.7,1.3-1.9,3.4-2.9,5l-0.7-0.3c0.4-2.1,1-4.4,1.3-5.4c0.6-1.7,0.3-3.6-1-5.1c-2.1-2.4-6.3-3.9-9.4-3.2
	c-2.1,0.4-3.6,1.7-4.2,3.6c-0.4,1.3-1.4,3.7-2.1,5.5l-0.7-0.1c-0.1-1.3-0.3-3-0.2-4.9c0.1-3.2-2.7-5.7-6.9-6.1
	c-4.8-0.5-8.6,1.9-9.3,5.8c-1.3,6.8-4.3,13.3-6.7,17.8c-0.6-5.7-1-10.1-1-10.2c0-0.3-0.1-0.6-0.2-0.9c-0.1-0.3-3.3-7.9-12.9-7.9
	c-8.3,0-12.2,7.2-12.4,7.5c-0.2,0.3-0.3,0.7-0.3,1c-0.2,1.3-4.1,31.4-4.4,45c-0.1,4.3,1.4,14.9,7.2,26.2c-0.7,8.2-1.6,17.2-1.8,18.3
	c-1.1,4.9,2.6,9.4,8.9,10.9c2,0.5,3.9,0.7,5.6,0.7c4.3,0,7.6-1.5,9.8-4.5c3.7,2.5,7.9,4.7,12.6,6.5c11.2,4.4,21,6.6,29.2,6.6
	c6.8,0,12.5-1.5,16.8-4.6C-159.2,448.7-155.8,440.6-156,429.8z M-178.3,381.2c0.7,0.7,2,1.9,3.9,3.7c3.9,3.7,7.1,10.5,9.2,19.2
	c-3.2-1.1-7.8-2.9-11.1-5.9c-4.3-3.9-7.4-12.9-6.3-16.3c0.2-0.6,0.3-0.6,0.6-0.6C-181,381.2-179.7,381.2-178.3,381.2z M-210.2,342.2
	c0-0.1,0.1-0.4,0.9-0.7c1.2-0.4,2.6-0.1,3.1,0.2c-0.1,4.2,0.6,7.6,0.6,7.7c0.2,1.2,1.2,2.2,2.4,2.5l5.3,1.1c1.4,0.3,2.9-0.5,3.4-1.8
	c0.1-0.2,2.2-5.1,3.1-7.8c0.8,0,2.3,0.4,3,1c-0.8,2.6-1.8,7.5-1.9,8.2c-0.3,1.5,0.5,2.9,1.9,3.5l5.5,2.1c1.4,0.5,2.9,0,3.7-1.3
	c0.1-0.2,2.7-4.3,4.1-6.9c0.6,0.1,1.6,0.6,2.2,1.3c0.1,0.1,0.4,0.5,0.4,0.8c-0.7,2.2-2.4,6.5-4.3,11c-0.5,0-1-0.1-1.5-0.1
	c-17-0.9-22.7-1.1-25.2,7.5c-1.8,6.2-8.8,18-11.9,19c-0.6-1.2-1.1-2.4-1.6-3.4c-0.6-1.2-1.1-2.2-1.4-2.9c-1.4-3.3-2.5-8.8-3.4-14.5
	C-220.8,367.2-212.7,355.6-210.2,342.2z M-243.8,349.8c0.7-1.1,2.9-3.8,6.7-3.8c4.6,0,6.5,2.7,7.1,3.7c0.3,4,2.2,26.8,6.1,35.8
	c0.4,0.9,0.9,2,1.5,3.2c3,6,9.2,18.6,6,26.5c-1.2,3-3.7,5.1-7.6,6.5c-11.4,4.1-16.4-2.7-16.6-2.9c-0.1-0.1-0.1-0.2-0.2-0.3
	c-5.9-10.8-7.4-21-7.3-25C-247.8,381.2-244.4,354.3-243.8,349.8z M-238.6,442.7c-1.3-0.3-4.8-1.6-4.3-3.5c0.2-1.1,0.7-6,1.2-10.8
	c3.2,4.5,7.2,8.9,12.1,12.9C-231.2,443.4-234,443.8-238.6,442.7z M-169.4,448.4c-7.8,5.5-21.8,4.5-40.3-2.7
	c-10.5-4.1-18.2-10.2-23.9-16.8c3.3,0.4,7.2,0.1,11.7-1.5c5.6-2,9.4-5.4,11.2-10c2.8-7,0.7-15.5-2.1-22.5
	c6.9-3.1,14.1-18.6,15.3-22.9c1-3.4,1.1-3.9,18.9-3c5,0.3,8.2,0.5,10.3,0.7c1.2,0.1,2.1,0.2,2.8,0.2c0.2,0,0.6,0.2,0.9,0.6
	c0.7,0.8,0.9,1.8,0.9,2.2c-0.1,1.2-1.4,3-2,3.1c-1.1-0.1-2.6-0.2-4.1-0.3c-4.5-0.4-9.6-0.8-12.8-0.3c-2.8,0.4-4.8,2.1-5.7,4.9
	c-2,6.4,2.7,17.8,8,22.7c5.5,5,13.6,7.4,16.6,8.2c0.9,5.7,1.5,12.1,1.7,19C-162,438.7-164.4,444.9-169.4,448.4z"/>
</svg>
