<?xml version="1.0" encoding="utf-8"?>
<!-- Generator: Adobe Illustrator 21.0.2, SVG Export Plug-In . SVG Version: 6.00 Build 0)  -->
<svg version="1.1" id="Layer_1" xmlns="http://www.w3.org/2000/svg" xmlns:xlink="http://www.w3.org/1999/xlink" x="0px" y="0px"
	 viewBox="0 0 100 100" style="enable-background:new 0 0 100 100;" xml:space="preserve" fill="#587aff">
<path d="M80,11H68c-0.1,0-0.3,0-0.4,0c0,0-0.1,0-0.1,0c-0.1,0-0.2,0-0.2,0.1c-0.1,0-0.2,0.1-0.3,0.2L26.1,39H7c-1.1,0-2,0.9-2,2v18
	c0,1.1,0.9,2,2,2h2v11.2C9,81.5,16.5,89,25.8,89H27c1.1,0,2-0.9,2-2v-8.5h4c1.1,0,2-0.9,2-2v-7c0-1.1-0.9-2-2-2h-4V63l37.9,25.7
	c0.2,0.1,0.3,0.2,0.5,0.2c0,0,0.1,0,0.1,0c0.2,0,0.3,0.1,0.5,0.1c0,0,0,0,0,0h12c1.1,0,2-0.9,2-2V13C82,11.9,81.1,11,80,11z M25,85
	c-6.7-0.4-12-6-12-12.7V61h12V85z M25,57H9V43h16V57z M31,71.5v3h-2v-3H31z M66,83.2L29,58.1V41.9l37-25.1V83.2z M78,85h-8V15h8V85z
	 M95,49.5c0,1.1-0.9,2-2,2h-4.7c-1.1,0-2-0.9-2-2s0.9-2,2-2H93C94.1,47.5,95,48.4,95,49.5z M85.3,30.8c-0.6-0.9-0.3-2.2,0.6-2.8
	l4.2-2.7c0.9-0.6,2.2-0.3,2.8,0.6c0.6,0.9,0.3,2.2-0.6,2.8l-4.2,2.7c-0.3,0.2-0.7,0.3-1.1,0.3C86.3,31.7,85.7,31.4,85.3,30.8z
	 M92.9,74.1c-0.4,0.6-1,0.9-1.7,0.9c-0.4,0-0.7-0.1-1.1-0.3L85.9,72c-0.9-0.6-1.2-1.8-0.6-2.8c0.6-0.9,1.8-1.2,2.8-0.6l4.2,2.7
	C93.2,71.9,93.5,73.1,92.9,74.1z"/>
</svg>
