<?xml version="1.0" encoding="utf-8"?>
<!-- Generator: Adobe Illustrator 21.0.2, SVG Export Plug-In . SVG Version: 6.00 Build 0)  -->
<svg version="1.1" id="Layer_1" xmlns="http://www.w3.org/2000/svg" xmlns:xlink="http://www.w3.org/1999/xlink" x="0px" y="0px"
	 viewBox="0 0 100 100" style="enable-background:new 0 0 100 100;" xml:space="preserve" fill="#587aff">
<path d="M86.2,36l-4.9-16.2C78.4,10.3,70.1,4,60.6,4H39.4c-9.5,0-17.8,6.3-20.7,15.8L13.8,36c-1.5,5-2.3,10.3-2.3,15.5v13.9
	c0,8.8,5.3,16.2,12.8,19.2l-3.8,5.7c-0.9,1.4-0.5,3.2,0.8,4.2c0.5,0.3,1.1,0.5,1.7,0.5c1,0,1.9-0.5,2.5-1.3l5.1-7.7
	c0.2,0,0.5,0,0.7,0h37.4c0.2,0,0.5,0,0.7,0l5.1,7.7C75.1,94.5,76,95,77,95c0.6,0,1.1-0.2,1.7-0.5c1.4-0.9,1.8-2.8,0.8-4.2l-3.8-5.7
	c7.5-2.9,12.8-10.4,12.8-19.2V51.5C88.5,46.3,87.7,41,86.2,36z M19.5,37.7l4.9-16.2C26.5,14.6,32.5,10,39.4,10h21.2
	c6.9,0,12.9,4.6,14.9,11.5l4.9,16.2c0.8,2.5,1.3,5,1.6,7.6c-15.3,0.6-24.2,3.7-29.2,6.3c-1.8,1-4,1-5.8,0c-5-2.6-13.9-5.7-29.2-6.3
	C18.2,42.8,18.8,40.2,19.5,37.7z M82.5,65.5c0,8-6.2,14.5-13.8,14.5H31.3c-7.6,0-13.8-6.5-13.8-14.5V51.5c0-0.7,0-1.5,0.1-2.2
	c15.5,0.6,23.9,3.9,27.7,5.9c1.5,0.8,3.1,1.2,4.8,1.2c1.6,0,3.3-0.4,4.8-1.2c3.8-2,12.2-5.3,27.7-5.9c0,0.7,0.1,1.5,0.1,2.2V65.5z
	 M30,56c-4.4,0-8,3.6-8,8s3.6,8,8,8s8-3.6,8-8S34.4,56,30,56z M30,68c-2.2,0-4-1.8-4-4s1.8-4,4-4s4,1.8,4,4S32.2,68,30,68z M70,56
	c-4.4,0-8,3.6-8,8s3.6,8,8,8s8-3.6,8-8S74.4,56,70,56z M70,68c-2.2,0-4-1.8-4-4s1.8-4,4-4s4,1.8,4,4S72.2,68,70,68z M52.5,37V17
	c0-1.1,0.9-2,2-2s2,0.9,2,2v18h18c1.1,0,2,0.9,2,2s-0.9,2-2,2h-20C53.4,39,52.5,38.1,52.5,37z M23.5,37c0-1.1,0.9-2,2-2h18V17
	c0-1.1,0.9-2,2-2s2,0.9,2,2v20c0,1.1-0.9,2-2,2h-20C24.4,39,23.5,38.1,23.5,37z"/>
</svg>
